<svg width="72" height="42" viewBox="0 0 72 42" fill="none" xmlns="http://www.w3.org/2000/svg">
<path d="M45.2904 25.1399V24.5519H46.2284C46.5457 24.5519 46.8164 24.4959 47.0404 24.3839C47.2644 24.2626 47.3764 23.9826 47.3764 23.5439V16.1939C47.0217 16.6232 46.6997 16.9732 46.4104 17.2439C46.1304 17.5146 45.8504 17.6499 45.5704 17.6499C45.3651 17.6499 45.1971 17.5799 45.0664 17.4399C44.9357 17.2999 44.8704 17.1179 44.8704 16.8939C45.1504 16.8192 45.4444 16.7072 45.7524 16.5579C46.0697 16.4086 46.4571 16.1612 46.9144 15.8159L47.8944 15.0879H48.7904V23.5439C48.7904 23.9826 48.9024 24.2626 49.1264 24.3839C49.3504 24.4959 49.6211 24.5519 49.9384 24.5519H50.6244V25.1399H45.2904ZM55.6867 25.2799C54.9214 25.2799 54.2961 25.0652 53.8107 24.6359C53.3254 24.2066 52.9661 23.6046 52.7327 22.8299C52.5087 22.0552 52.3967 21.1499 52.3967 20.1139C52.3967 19.0779 52.5087 18.1772 52.7327 17.4119C52.9661 16.6466 53.3254 16.0539 53.8107 15.6339C54.2961 15.2139 54.9261 15.0039 55.7007 15.0039C56.4287 15.0039 57.0354 15.2139 57.5207 15.6339C58.0061 16.0539 58.3654 16.6512 58.5987 17.4259C58.8414 18.1912 58.9627 19.0919 58.9627 20.1279C58.9627 21.1639 58.8414 22.0692 58.5987 22.8439C58.3561 23.6092 57.9921 24.2066 57.5067 24.6359C57.0307 25.0652 56.4241 25.2799 55.6867 25.2799ZM55.6867 24.5239C56.3681 24.5239 56.8394 24.1366 57.1007 23.3619C57.3714 22.5872 57.5067 21.5092 57.5067 20.1279C57.5067 18.7372 57.3714 17.6639 57.1007 16.9079C56.8394 16.1426 56.3727 15.7599 55.7007 15.7599C55.0194 15.7599 54.5387 16.1426 54.2587 16.9079C53.9881 17.6639 53.8527 18.7372 53.8527 20.1279C53.8527 21.5092 53.9881 22.5872 54.2587 23.3619C54.5294 24.1366 55.0054 24.5239 55.6867 24.5239ZM63.507 25.2799C62.7417 25.2799 62.1164 25.0652 61.631 24.6359C61.1457 24.2066 60.7864 23.6046 60.553 22.8299C60.329 22.0552 60.217 21.1499 60.217 20.1139C60.217 19.0779 60.329 18.1772 60.553 17.4119C60.7864 16.6466 61.1457 16.0539 61.631 15.6339C62.1164 15.2139 62.7464 15.0039 63.521 15.0039C64.249 15.0039 64.8557 15.2139 65.341 15.6339C65.8264 16.0539 66.1857 16.6512 66.419 17.4259C66.6617 18.1912 66.783 19.0919 66.783 20.1279C66.783 21.1639 66.6617 22.0692 66.419 22.8439C66.1764 23.6092 65.8124 24.2066 65.327 24.6359C64.851 25.0652 64.2444 25.2799 63.507 25.2799ZM63.507 24.5239C64.1884 24.5239 64.6597 24.1366 64.921 23.3619C65.1917 22.5872 65.327 21.5092 65.327 20.1279C65.327 18.7372 65.1917 17.6639 64.921 16.9079C64.6597 16.1426 64.193 15.7599 63.521 15.7599C62.8397 15.7599 62.359 16.1426 62.079 16.9079C61.8084 17.6639 61.673 18.7372 61.673 20.1279C61.673 21.5092 61.8084 22.5872 62.079 23.3619C62.3497 24.1366 62.8257 24.5239 63.507 24.5239Z" fill="#677071"/>
<path d="M14.4941 22.6362L10.4981 26.0568V12.3747C10.4981 12.1479 10.5832 11.9304 10.7347 11.77C10.8861 11.6096 11.0915 11.5195 11.3057 11.5195H24.2277C24.4419 11.5195 24.6473 11.6096 24.7988 11.77C24.9503 11.9304 25.0353 12.1479 25.0353 12.3747V21.7811C25.0353 22.0079 24.9503 22.2254 24.7988 22.3858C24.6473 22.5461 24.4419 22.6362 24.2277 22.6362H14.4941Z" stroke="#CCCFD0" stroke-width="1.7" stroke-linecap="round" stroke-linejoin="round"/>
<path d="M15.3438 22.6362V26.9118C15.3438 27.1386 15.4289 27.3561 15.5804 27.5165C15.7318 27.6769 15.9373 27.767 16.1515 27.767H25.8851L29.8811 31.1875V17.5054C29.8811 17.2786 29.796 17.0611 29.6445 16.9007C29.4931 16.7404 29.2876 16.6503 29.0734 16.6503H25.0353" stroke="#CCCFD0" stroke-width="1.7" stroke-linecap="round" stroke-linejoin="round"/>
</svg>
