<svg width="191" height="104" viewBox="0 0 191 104" fill="none" xmlns="http://www.w3.org/2000/svg">
<circle cx="4.27233" cy="4.37097" r="4.27233" fill="#FEECEB"/>
<circle cx="108.074" cy="4.37097" r="4.27233" fill="#FEECEB"/>
<circle cx="30.2228" cy="4.37097" r="4.27233" fill="#FEECEB"/>
<circle cx="134.025" cy="4.37097" r="4.27233" fill="#FEECEB"/>
<circle cx="56.1732" cy="4.37097" r="4.27233" fill="#FEECEB"/>
<circle cx="159.975" cy="4.37097" r="4.27233" fill="#FEECEB"/>
<circle cx="82.1236" cy="4.37097" r="4.27233" fill="#FEECEB"/>
<circle cx="185.925" cy="4.37097" r="4.27233" fill="#FEECEB"/>
<circle cx="4.27233" cy="35.9156" r="4.27233" fill="#FEECEB"/>
<circle cx="108.074" cy="35.9156" r="4.27233" fill="#FEECEB"/>
<circle cx="30.2228" cy="35.9156" r="4.27233" fill="#FEECEB"/>
<circle cx="134.025" cy="35.9156" r="4.27233" fill="#FEECEB"/>
<circle cx="56.1732" cy="35.9156" r="4.27233" fill="#FEECEB"/>
<circle cx="159.975" cy="35.9156" r="4.27233" fill="#FEECEB"/>
<circle cx="82.1236" cy="35.9156" r="4.27233" fill="#FEECEB"/>
<circle cx="185.925" cy="35.9156" r="4.27233" fill="#FEECEB"/>
<circle cx="4.27233" cy="67.4603" r="4.27233" fill="#FEECEB"/>
<circle cx="108.074" cy="67.4603" r="4.27233" fill="#FEECEB"/>
<circle cx="30.2228" cy="67.4603" r="4.27233" fill="#FEECEB"/>
<circle cx="134.025" cy="67.4603" r="4.27233" fill="#FEECEB"/>
<circle cx="56.1732" cy="67.4603" r="4.27233" fill="#FEECEB"/>
<circle cx="159.975" cy="67.4603" r="4.27233" fill="#FEECEB"/>
<circle cx="82.1236" cy="67.4603" r="4.27233" fill="#FEECEB"/>
<circle cx="185.925" cy="67.4603" r="4.27233" fill="#FEECEB"/>
<circle cx="4.27233" cy="99.005" r="4.27233" fill="#FEECEB"/>
<circle cx="108.074" cy="99.005" r="4.27233" fill="#FEECEB"/>
<circle cx="30.2228" cy="99.005" r="4.27233" fill="#FEECEB"/>
<circle cx="134.025" cy="99.005" r="4.27233" fill="#FEECEB"/>
<circle cx="56.1732" cy="99.005" r="4.27233" fill="#FEECEB"/>
<circle cx="159.975" cy="99.005" r="4.27233" fill="#FEECEB"/>
<circle cx="82.1236" cy="99.005" r="4.27233" fill="#FEECEB"/>
<circle cx="185.925" cy="99.005" r="4.27233" fill="#FEECEB"/>
</svg>
