<svg width="98" height="98" viewBox="0 0 98 98" fill="none" xmlns="http://www.w3.org/2000/svg">
<path d="M22.1071 59.2725L18.7144 71.9379L6.3142 72.2002C2.60836 65.3267 0.506348 57.4625 0.506348 49.1055C0.506348 41.0243 2.47168 33.4036 5.95536 26.6934H5.95802L16.9977 28.7174L21.8337 39.6908C20.8215 42.6416 20.2699 45.8093 20.2699 49.1055C20.2702 52.6828 20.9182 56.1104 22.1071 59.2725Z" fill="#FBBB00"/>
<path d="M97.1218 40.0015C97.6814 42.9495 97.9733 45.994 97.9733 49.1055C97.9733 52.5945 97.6064 55.9978 96.9076 59.2807C94.5353 70.4519 88.3364 80.2066 79.7492 87.1096L79.7466 87.1069L65.8415 86.3974L63.8735 74.1122C69.5715 70.7706 74.0246 65.541 76.3702 59.2807H50.3112V40.0015H76.7504H97.1218Z" fill="#518EF8"/>
<path d="M79.7464 87.107L79.7491 87.1097C71.3976 93.8225 60.7885 97.839 49.2398 97.839C30.6809 97.839 14.5454 87.4658 6.31421 72.2005L22.1071 59.2728C26.2226 70.2565 36.8181 78.0753 49.2398 78.0753C54.579 78.0753 59.581 76.632 63.8732 74.1123L79.7464 87.107Z" fill="#28B446"/>
<path d="M80.3463 11.5914L64.5587 24.5165C60.1165 21.7398 54.8655 20.1358 49.2398 20.1358C36.537 20.1358 25.7433 28.3133 21.8339 39.6908L5.95805 26.6935H5.95538C14.0661 11.0559 30.4051 0.37207 49.2398 0.37207C61.0644 0.37207 71.9062 4.58409 80.3463 11.5914Z" fill="#F14336"/>
</svg>
