<svg width="103" height="104" viewBox="0 0 103 104" fill="none" xmlns="http://www.w3.org/2000/svg">
<path d="M82.61 47.2776C82.6032 47.2776 82.6032 47.2776 82.61 47.2776L55.9873 20.4008C54.8542 19.2566 53.3504 18.6256 51.7435 18.6256C50.1367 18.6256 48.6329 19.2566 47.493 20.4008L20.8977 47.2637C20.8908 47.2707 20.8771 47.2845 20.8702 47.2915C18.5423 49.656 18.5423 53.4976 20.8839 55.8552C21.9483 56.9369 23.3629 57.561 24.8667 57.6234C24.9285 57.6303 24.9903 57.6303 25.0521 57.6303H26.1096V77.4066C26.1096 81.3175 29.2615 84.5072 33.1412 84.5072H43.5514C44.6089 84.5072 45.4604 83.6404 45.4604 82.5795V67.0677C45.4604 65.2787 46.9024 63.8295 48.6672 63.8295H54.8062C56.5778 63.8295 58.013 65.2787 58.013 67.0677V82.5725C58.013 83.6404 58.8713 84.5002 59.922 84.5002H70.3321C74.2119 84.5002 77.3638 81.3175 77.3638 77.3997V57.6303H78.3457C79.9526 57.6303 81.4564 56.9993 82.5963 55.8552C84.9448 53.4906 84.9448 49.6422 82.61 47.2776ZM79.9045 53.1231C79.4925 53.5392 78.9431 53.768 78.3595 53.768H75.4616C74.4041 53.768 73.5527 54.6348 73.5527 55.6957V77.3997C73.5527 79.1817 72.1175 80.6379 70.3458 80.6379H61.8447V67.0677C61.8447 63.1569 58.6928 59.9671 54.813 59.9671H48.6741C44.7943 59.9671 41.6424 63.1499 41.6424 67.0677V80.6448H33.1412C31.3765 80.6448 29.9344 79.1956 29.9344 77.4066V55.7026C29.9344 54.6348 29.0761 53.7749 28.0254 53.7749H25.1757C25.1482 53.7749 25.1139 53.768 25.0864 53.768C24.5165 53.7611 23.9809 53.5322 23.5826 53.1231C22.7311 52.2633 22.7311 50.8626 23.5826 50.0027L50.1985 23.1328C50.6105 22.7168 51.1599 22.4879 51.7435 22.4879C52.3272 22.4879 52.8766 22.7168 53.2886 23.1328L79.8976 50.0027C79.9045 50.0097 79.9045 50.0097 79.9114 50.0166C80.7491 50.8695 80.7491 52.2702 79.9045 53.1231Z" fill="#B3C41D"/>
</svg>
