<svg width="42" height="41" viewBox="0 0 42 41" fill="none" xmlns="http://www.w3.org/2000/svg">
<path d="M28.0638 11.0024H14.2691C12.9549 11.0024 11.8865 12.0099 11.8865 13.4672V27.7376C11.8865 29.195 12.9549 30.2024 14.2691 30.2024H28.0638C29.3781 30.2024 30.4465 29.195 30.4465 27.7376V13.4672C30.4465 12.0099 29.3781 11.0024 28.0638 11.0024ZM24.575 14.0052C24.575 13.5259 24.9532 13.1445 25.407 13.1445H27.506C27.9693 13.1445 28.338 13.5357 28.338 14.0052V16.0788C28.338 16.558 27.9598 16.9395 27.506 16.9395H25.407C24.9437 16.9395 24.575 16.5482 24.575 16.0788V14.0052ZM21.1901 16.8319C23.2513 16.8319 24.9153 18.5044 24.9153 20.5682C24.9153 22.632 23.2418 24.3045 21.1901 24.3045C19.1289 24.3045 17.4649 22.632 17.4649 20.5682C17.4649 18.5044 19.1289 16.8319 21.1901 16.8319ZM28.3475 27.2388C28.3475 27.6594 28.0166 28.0017 27.61 28.0017H14.6851C14.2786 28.0017 13.9476 27.6594 13.9476 27.2388V19.1206H15.6495C15.4982 19.639 15.4132 20.1965 15.4132 20.7638C15.4132 23.9622 17.9944 26.5444 21.1807 26.5444C24.367 26.5444 26.9482 23.9524 26.9482 20.7638C26.9482 20.1965 26.8631 19.639 26.7118 19.1206H28.3475V27.2388V27.2388Z" fill="#C8F3F9"/>
<rect x="1.1665" y="1.10254" width="40" height="39" stroke="#C8F3F9"/>
</svg>
