<svg width="42" height="41" viewBox="0 0 42 41" fill="none" xmlns="http://www.w3.org/2000/svg">
<path d="M29.9413 30.0345L29.9506 23.0567C29.9506 19.6402 29.2416 17.0151 25.3792 17.0151C23.5226 17.0151 22.2818 18.0671 21.7687 19.0708H21.7127V17.324H18.0556V30.0248H21.862V23.742C21.862 22.082 22.1699 20.4799 24.1477 20.4799C26.0976 20.4799 26.1349 22.3715 26.1349 23.8481V30.0345H29.9413Z" fill="#C8F3F9"/>
<path d="M15.6766 17.324H11.8608V30.0248H15.6766V17.324Z" fill="#C8F3F9"/>
<path d="M13.764 11.0024C12.5419 11.0024 11.553 12.0255 11.553 13.2898C11.553 14.5541 12.5419 15.5964 13.764 15.5964C14.9862 15.5964 15.9751 14.5541 15.9751 13.2898C15.9751 12.0255 14.9862 11.0024 13.764 11.0024Z" fill="#C8F3F9"/>
<rect x="0.833008" y="1.10254" width="40" height="39" stroke="#C8F3F9"/>
</svg>
