<svg width="31" height="31" viewBox="0 0 31 31" fill="none" xmlns="http://www.w3.org/2000/svg">
<path d="M15.1899 6.12109C11.0526 6.12109 7.68738 9.33913 7.68738 13.2978C7.68738 18.9215 14.4832 24.7269 14.7724 24.9706C14.8906 25.0709 15.039 25.1211 15.1874 25.1211C15.3358 25.1211 15.4842 25.0709 15.6024 24.9706C15.8916 24.7269 22.6874 18.9192 22.6874 13.2954C22.6899 9.33913 19.3247 6.12109 15.1899 6.12109ZM15.1899 17.2062C12.8911 17.2062 11.0224 15.4312 11.0224 13.2476C11.0224 11.064 12.8911 9.28896 15.1899 9.28896C17.4887 9.28896 19.3574 11.064 19.3574 13.2476C19.3574 15.4312 17.4862 17.2062 15.1899 17.2062Z" fill="#13A6BA"/>
</svg>
