<svg width="131" height="27" viewBox="0 0 131 27" fill="none" xmlns="http://www.w3.org/2000/svg">
<path d="M17.9951 26.9044C15.016 26.9044 12.0067 26.9044 9.02763 26.9044C6.04851 26.9044 3.00921 26.9044 0 26.9044V0.0664062H8.57625V7.21468C10.141 7.21468 11.7359 7.21468 13.3007 7.21468C14.8655 7.21468 16.4604 7.21468 18.0252 7.21468C19.3191 7.21468 20.1015 7.62954 20.1015 7.62954C20.4024 7.75718 20.7034 7.91674 20.9441 8.10822C21.1848 8.29969 21.4557 8.52307 21.6663 8.77837C22.0876 9.28896 22.4186 9.9272 22.6594 10.6612C22.7195 11.0122 22.8098 11.3632 22.87 11.7781C22.9302 12.1929 22.9603 12.6078 22.9603 13.0546V21.1921C22.9603 21.6708 22.9302 22.1176 22.87 22.5005C22.8098 22.8834 22.7195 23.2664 22.5992 23.5855C22.4487 24.0004 22.2982 24.3833 22.0876 24.7343C21.877 25.0854 21.6663 25.3407 21.3955 25.564C21.1848 25.8193 20.914 26.0108 20.6432 26.2023C20.3724 26.3938 20.1015 26.4895 19.8307 26.5852C19.8307 26.5852 18.8978 26.9044 17.9951 26.9044ZM13.3308 11.076H9.59938C9.44892 11.076 9.32855 11.1079 9.20818 11.2037C9.08781 11.2994 8.96745 11.3951 8.87717 11.5228C8.72671 11.6504 8.63643 11.7781 8.57625 11.9377C8.51606 12.0972 8.48597 12.2568 8.48597 12.4163V21.8304C8.48597 21.9899 8.51606 22.1176 8.60634 22.2452C8.69662 22.3729 8.7568 22.5005 8.84708 22.5962C8.96745 22.7239 9.08781 22.8196 9.20818 22.8834C9.32855 22.9473 9.47901 23.043 9.62947 23.043H13.3609C13.4813 23.043 13.6016 23.0111 13.722 22.9154C13.8424 22.8196 13.9627 22.7558 14.053 22.6282C14.1433 22.5005 14.2336 22.3729 14.2937 22.2452C14.3539 22.1176 14.384 21.958 14.384 21.8304V12.3844C14.384 12.2568 14.3539 12.1291 14.2937 11.9696C14.2336 11.81 14.1734 11.6504 14.053 11.5547C13.9326 11.459 13.8424 11.3313 13.722 11.2356C13.6016 11.1399 13.4813 11.076 13.3308 11.076Z" fill="#021112"/>
<path d="M25.6385 7.21436H33.4324V8.65039C33.5227 8.45892 33.643 8.26745 33.7634 8.07598C33.8838 7.88451 34.0342 7.75686 34.1546 7.62921C34.3051 7.50156 34.4856 7.40583 34.6361 7.342C34.7865 7.27818 34.9671 7.21436 35.1777 7.21436H43.4531C43.8443 7.21436 44.2054 7.27818 44.5063 7.43774C44.8072 7.5973 45.0479 7.78877 45.2285 8.01215C45.379 8.17171 45.5294 8.36319 45.6197 8.55466C45.71 8.74613 45.8003 8.90569 45.8604 9.06525C45.9206 9.22481 45.9507 9.32054 45.9808 9.38437C46.0109 9.44819 45.9808 9.44819 45.9507 9.35246C46.0109 9.09716 46.0711 8.84187 46.1313 8.61848C46.1914 8.3951 46.3118 8.17171 46.4322 7.98024C46.5526 7.72495 46.703 7.53347 46.8836 7.40583C47.0641 7.27818 47.3049 7.21436 47.5456 7.21436H54.3464C54.8279 7.21436 55.2793 7.27818 55.6705 7.37392C56.0617 7.46965 56.3927 7.62921 56.7237 7.85259C57.0547 8.07598 57.2954 8.29936 57.5362 8.55466C57.7769 8.80995 57.9575 9.12907 58.138 9.44819C58.2885 9.7354 58.4088 10.0226 58.4991 10.3417C58.5894 10.6608 58.6797 10.98 58.7399 11.2991C58.8 11.7139 58.8602 12.1288 58.8903 12.5437C58.9204 12.9585 58.9505 13.3415 58.9505 13.7244V26.8721H51.1566V12.1607C51.1566 12.0011 51.1266 11.8416 51.0664 11.7139C51.0062 11.5863 50.946 11.4906 50.8858 11.3629C50.7955 11.2991 50.7053 11.2353 50.5849 11.1714C50.4645 11.1076 50.3743 11.1076 50.2539 11.1076H47.0039C46.8836 11.1076 46.7933 11.1395 46.6729 11.2033C46.5526 11.2672 46.4924 11.331 46.4322 11.3948C46.372 11.4906 46.3118 11.6182 46.2516 11.7459C46.1914 11.8735 46.1915 11.9692 46.1915 12.0969V26.8721H38.3675V12.2245C38.3675 12.0969 38.3374 11.9692 38.3073 11.8097C38.2772 11.6501 38.217 11.5225 38.1569 11.4267C38.0666 11.2991 37.9462 11.2033 37.8258 11.1395C37.7055 11.0757 37.5249 11.0119 37.3444 11.0119H34.2449C34.1245 11.0119 34.0042 11.0438 33.9139 11.1395C33.8236 11.2353 33.7333 11.331 33.643 11.4586C33.5528 11.5863 33.5227 11.7139 33.4625 11.8416C33.4023 11.9692 33.4023 12.0969 33.4023 12.2245V26.8721H25.6385V7.21436Z" fill="#021112"/>
<path d="M84.5887 13.9797V26.8402H77.0356L76.4939 24.734C76.4638 24.8936 76.4337 25.0213 76.3735 25.117C76.3134 25.2127 76.2532 25.3404 76.2231 25.4361C76.1629 25.5957 76.1027 25.7233 75.9823 25.851C75.862 25.9786 75.8018 26.0743 75.7115 26.1701C75.4407 26.3935 75.1699 26.5849 74.899 26.6807C74.5981 26.7764 74.2671 26.8402 73.9361 26.8402H66.082C65.6607 26.8402 65.2696 26.8083 64.9385 26.7126C64.6075 26.6169 64.2765 26.5211 64.0057 26.3616C63.7048 26.202 63.4339 26.0105 63.2233 25.7871C63.0126 25.5638 62.802 25.2765 62.6515 24.9893C62.471 24.6702 62.3205 24.2873 62.2002 23.8724C62.0798 23.4576 62.0196 23.0427 61.9594 22.6598C61.8992 22.2449 61.8691 21.7981 61.8691 21.3833C61.8691 20.9684 61.8391 20.5536 61.8391 20.1706C61.8391 19.8196 61.8391 19.4367 61.8391 19.0537C61.8391 18.6708 61.8691 18.2559 61.8992 17.8411C61.9293 17.4262 62.0196 17.0433 62.0798 16.6603C62.14 16.2774 62.2603 15.9263 62.4108 15.6072C62.5613 15.2562 62.7719 14.9371 63.0427 14.6499C63.3136 14.3627 63.5844 14.1393 63.9455 13.9478C64.2163 13.7882 64.5473 13.6925 64.9084 13.5968C65.2696 13.501 65.6607 13.4691 66.082 13.4691H74.8388C74.9893 13.4691 75.1699 13.4053 75.3203 13.3096C75.4708 13.2138 75.6513 13.0862 75.7717 12.8947C75.862 12.799 75.9522 12.6713 76.0124 12.5118C76.0726 12.3522 76.1027 12.2246 76.1027 12.0969C76.1027 11.9374 76.0726 11.8097 75.9823 11.6501C75.8921 11.4906 75.8319 11.3629 75.7115 11.2672C75.5911 11.1396 75.4708 11.0438 75.3203 10.98C75.1699 10.9162 75.0495 10.8523 74.899 10.8523H63.2534V7.11865H79.473C79.9545 7.11865 80.3758 7.15056 80.767 7.2463C81.1582 7.34204 81.5193 7.46968 81.8503 7.62924C82.2415 7.7888 82.5424 8.0441 82.8132 8.29939C83.0841 8.55469 83.3248 8.87381 83.5054 9.19293C83.6859 9.48014 83.8665 9.79926 83.9868 10.1503C84.1072 10.5013 84.2276 10.8204 84.2878 11.1715C84.4081 11.6501 84.4683 12.1288 84.5285 12.6075C84.5887 13.0862 84.5887 13.5649 84.5887 13.9797ZM76.0726 17.3943H71.9199C71.7394 17.3943 71.5588 17.4581 71.3782 17.5539C71.1977 17.6496 71.0472 17.7772 70.8968 17.9368C70.7764 18.0964 70.6861 18.2559 70.5658 18.4474C70.4454 18.6389 70.4153 18.7665 70.4153 18.958V21.7662C70.4153 21.8939 70.4454 22.0215 70.5056 22.1492C70.5658 22.2768 70.6259 22.4045 70.7162 22.5321C70.8366 22.6598 70.987 22.7555 71.1375 22.8832C71.288 23.0108 71.4685 23.0427 71.5889 23.0427H74.9893C75.1097 23.0427 75.23 23.0108 75.3805 22.9151C75.531 22.8193 75.6513 22.7236 75.7717 22.5959C75.862 22.5002 75.9522 22.3726 76.0124 22.2449C76.0726 22.1173 76.1027 21.9896 76.1027 21.862V17.3943H76.0726Z" fill="#021112"/>
<path d="M96.2953 26.904H87.6889V7.21436H96.2953V8.96951C96.4156 8.77804 96.5661 8.58657 96.7466 8.3951C96.8068 8.29936 96.8971 8.20363 97.0175 8.10789C97.1378 8.01215 97.2281 7.94833 97.3184 7.91642C97.4688 7.82068 97.5892 7.72495 97.7397 7.62921C97.8901 7.53347 98.0105 7.46965 98.161 7.43774C98.3114 7.37391 98.492 7.342 98.6424 7.31009C98.7929 7.27818 98.9434 7.24627 99.0938 7.24627H104.209V12.7032H99.6957C99.2443 12.7032 98.823 12.767 98.4619 12.8628C98.0707 12.9585 97.7096 13.0862 97.4388 13.2776C97.2883 13.3414 97.1378 13.4372 97.0175 13.5648C96.8971 13.6925 96.8068 13.8201 96.6865 13.9478C96.536 14.1073 96.4457 14.2669 96.3855 14.4584C96.3253 14.6498 96.2953 14.8413 96.2953 15.0647V26.904Z" fill="#021112"/>
<path d="M115.222 14.0438L122.594 7.24656H128.011L122.925 11.9695L130.84 26.9362H120.638L116.606 17.7137L115.192 19.1816V27.0001L106.646 26.9682V0.162109H115.192V14.0438H115.222Z" fill="#021112"/>
</svg>
