<svg width="31" height="31" viewBox="0 0 31 31" fill="none" xmlns="http://www.w3.org/2000/svg">
<path d="M24.2907 12.2857L23.1822 11.2221V8.82485C23.1822 7.28099 21.9278 6.02661 20.3839 6.02661C18.9773 6.02661 17.813 7.07086 17.6179 8.42387H14.3886C13.9684 8.42387 13.5567 8.59541 13.2586 8.89132L6.06254 16.0874C5.76663 16.3854 5.59509 16.7971 5.59509 17.2195C5.59509 17.642 5.76663 18.0515 6.06254 18.3496L10.8592 23.1462C11.1573 23.4443 11.5689 23.6137 11.9892 23.6137C12.4095 23.6137 12.8212 23.4421 13.1192 23.1462L14.3865 21.879V23.6158C14.3865 24.0361 14.5645 24.4499 14.8754 24.7501C15.1799 25.046 15.6044 25.2154 16.0418 25.2154H23.1243C23.5595 25.2154 23.9841 25.046 24.2907 24.7501C24.6016 24.4499 24.7796 24.0361 24.7796 23.6158V13.4221C24.7818 13.0018 24.6038 12.588 24.2907 12.2857ZM20.3839 6.82641C21.4861 6.82641 22.3824 7.72271 22.3824 8.82485V10.4566L20.7506 8.89132C20.3925 8.54181 19.8886 8.38313 19.3954 8.44746C19.3268 8.43459 19.2582 8.42816 19.1853 8.42816H18.4262C18.6128 7.51471 19.419 6.82641 20.3839 6.82641ZM17.9867 9.99775C18.6621 9.99775 19.211 10.5467 19.211 11.2221C19.211 11.8975 18.6621 12.4465 17.9867 12.4465C17.3112 12.4465 16.7623 11.8975 16.7623 11.2221C16.7623 10.5488 17.3112 9.99775 17.9867 9.99775ZM23.982 23.6137C23.982 23.8174 23.8919 24.0232 23.7354 24.1733C23.5788 24.3256 23.3558 24.4113 23.1264 24.4113H16.044C15.8145 24.4113 15.5915 24.3234 15.435 24.1733C15.2785 24.0232 15.1884 23.8174 15.1884 23.6137V21.0792L20.3153 15.9523C20.6134 15.6543 20.7828 15.2426 20.7828 14.8223V10.0299L23.7354 12.8603C23.8919 13.0104 23.982 13.2163 23.982 13.42V23.6137Z" fill="#13A6BA"/>
<path d="M17.9867 11.6231C18.2075 11.6231 18.3855 11.443 18.3855 11.2243C18.3855 11.0034 18.2054 10.8254 17.9867 10.8254C17.768 10.8254 17.5878 11.0056 17.5878 11.2243C17.5857 11.443 17.7658 11.6231 17.9867 11.6231Z" fill="#13A6BA"/>
</svg>
