<svg width="31" height="31" viewBox="0 0 31 31" fill="none" xmlns="http://www.w3.org/2000/svg">
<path d="M22.7198 11.1084C22.3387 10.6453 21.8671 10.281 21.3408 10.0326C21.3618 9.85998 21.3745 9.68523 21.3745 9.51049C21.3745 7.22197 19.5133 5.36084 17.2269 5.36084C14.9405 5.36084 13.0773 7.22197 13.0773 9.51049C13.0773 10.1337 13.2183 10.7505 13.4857 11.3085C12.6457 12.5548 12.5699 14.1991 13.3362 15.5234L11.0498 17.8077L7.05596 21.8036C6.65595 22.2036 6.65595 22.8563 7.05596 23.2563C7.45598 23.6563 8.10864 23.6563 8.50866 23.2563L9.15079 22.6142L9.59081 23.0542C9.99082 23.4542 10.6435 23.4542 11.0435 23.0542C11.4435 22.6542 11.4435 22.0015 11.0435 21.6015L10.6035 21.1615L10.9593 20.8057L11.3993 21.2457C11.7825 21.6436 12.4709 21.6436 12.852 21.2457C13.2499 20.8625 13.2499 20.1741 12.852 19.793L12.412 19.353L14.791 16.974C15.7869 17.5508 16.9932 17.6666 18.088 17.2855C18.1575 17.315 18.227 17.3424 18.2964 17.3698V21.8499V23.4079V24.4522C18.2964 24.528 18.3259 24.6016 18.3764 24.6585L19.427 25.787C19.5365 25.9091 19.7449 25.9133 19.8586 25.7954L20.9976 24.6669C21.0544 24.6101 21.086 24.5343 21.086 24.4522V23.4563C21.086 23.3637 21.0439 23.2753 20.9702 23.2184L20.307 22.7047L20.9702 22.191C21.1239 22.0773 21.1239 21.8289 20.9702 21.7152L20.307 21.2015L20.9702 20.6878C21.1239 20.5741 21.1239 20.3257 20.9702 20.212L20.307 19.6983L20.9702 19.1846C21.0439 19.1277 21.086 19.0393 21.086 18.9467V17.3382C22.6103 16.7466 23.6188 15.2855 23.6188 13.6328C23.6188 13.1549 23.5345 12.6854 23.3682 12.2411C23.3009 12.0601 23.2082 11.8495 23.0756 11.6243C22.9598 11.4179 22.8356 11.2474 22.7198 11.1084ZM18.9386 12.5906C18.9386 12.1885 19.2649 11.8601 19.6691 11.8601C19.7344 11.8601 19.7975 11.8706 19.8586 11.8853C19.5975 12.1738 19.2902 12.4201 18.9407 12.6138C18.9407 12.6075 18.9386 12.599 18.9386 12.5906ZM19.6691 13.3212C19.4944 13.3212 19.3323 13.258 19.2081 13.1548C19.6354 12.9233 20.0102 12.6222 20.326 12.2706C20.3744 12.3674 20.4018 12.4748 20.4018 12.5906C20.3976 12.9948 20.0712 13.3212 19.6691 13.3212ZM17.2269 5.96297C19.1828 5.96297 20.7744 7.55462 20.7744 9.51049C20.7744 9.61154 20.7702 9.7126 20.7618 9.81366C20.4039 9.7105 20.0312 9.65576 19.6481 9.65576C19.1912 9.65576 18.7512 9.73365 18.3428 9.87682C16.8585 9.24521 15.1174 9.57575 13.972 10.7232C13.9531 10.7421 13.9363 10.7611 13.9173 10.78C13.7636 10.3779 13.6836 9.94629 13.6836 9.51049C13.6794 7.55462 15.271 5.96297 17.2269 5.96297ZM14.9131 16.3424C14.7931 16.2623 14.6352 16.2792 14.5342 16.3802L11.7741 19.1404C11.6562 19.2583 11.6562 19.4477 11.7741 19.5656L12.4267 20.2183C12.5909 20.3762 12.5909 20.6604 12.4267 20.8204C12.2688 20.9847 11.9846 20.9847 11.8246 20.8204L11.1719 20.1678C11.054 20.0499 10.8645 20.0499 10.7466 20.1678L9.96556 20.9489C9.84976 21.0604 9.84976 21.2626 9.96556 21.3741L10.6182 22.0268C10.7845 22.1931 10.7845 22.4626 10.6182 22.6289C10.4519 22.7953 10.1824 22.7953 10.0161 22.6289L9.36343 21.9763C9.24553 21.8584 9.05605 21.8584 8.93815 21.9763L8.08337 22.831C7.91705 22.9974 7.64757 22.9974 7.48124 22.831C7.31492 22.6647 7.31492 22.3952 7.48124 22.2289L10.9993 18.7109L13.932 15.7781C14.0331 15.6771 14.0499 15.5171 13.9699 15.3992C13.0836 14.0686 13.2625 12.2811 14.3952 11.1485C15.2289 10.3147 16.4353 9.9884 17.5575 10.2516C17.1595 10.4979 16.8101 10.8116 16.5216 11.1779C15.9869 11.2369 15.4879 11.4748 15.1047 11.858C14.1805 12.7822 14.1805 14.2854 15.1047 15.2097C15.45 15.555 15.8816 15.7802 16.3595 15.8644C16.3974 15.9192 16.4353 15.9739 16.4774 16.0287C16.7195 16.3487 17.0101 16.6287 17.3322 16.8603C16.4964 16.9971 15.629 16.8182 14.9131 16.3424ZM15.949 15.0939C15.7953 15.0118 15.6563 14.9086 15.53 14.7823C15.0647 14.317 14.9131 13.6517 15.0774 13.058C15.271 13.1759 15.4711 13.2749 15.6816 13.3591C15.6753 13.4475 15.6732 13.538 15.6732 13.6286C15.6711 14.138 15.7658 14.6328 15.949 15.0939ZM15.77 12.7443C15.6205 12.6769 15.4753 12.599 15.3363 12.5106C15.3932 12.4306 15.4563 12.3527 15.53 12.2811C15.6837 12.1274 15.8648 12.0032 16.0606 11.9169C15.9342 12.178 15.8374 12.4559 15.77 12.7443Z" fill="#13A6BA"/>
</svg>
