<svg width="182" height="142" viewBox="0 0 182 142" fill="none" xmlns="http://www.w3.org/2000/svg">
<path d="M138.5 141.533C128.167 141.533 119.167 137.867 111.5 130.533C103.833 122.867 100 112.033 100 98.0332C100 76.6999 106.167 57.1999 118.5 39.5332C131.167 21.8665 152.333 8.69988 182 0.0332031V21.0332C150.333 31.3665 134.5 46.3665 134.5 66.0332C134.5 71.0332 136.333 74.8665 140 77.5332C143.667 80.1999 147.833 82.6999 152.5 85.0332C157.5 87.3665 161.833 90.5332 165.5 94.5332C169.167 98.5332 171 104.367 171 112.033C171 121.367 167.833 128.7 161.5 134.033C155.5 139.033 147.833 141.533 138.5 141.533ZM38.5 141.533C28.1667 141.533 19.1667 137.867 11.5 130.533C3.83333 122.867 0 112.033 0 98.0332C0 76.6999 6.16667 57.1999 18.5 39.5332C31.1667 21.8665 52.3333 8.69988 82 0.0332031V21.0332C50.3333 31.3665 34.5 46.3665 34.5 66.0332C34.5 71.0332 36.3333 74.8665 40 77.5332C43.6667 80.1999 47.8333 82.6999 52.5 85.0332C57.5 87.3665 61.8333 90.5332 65.5 94.5332C69.1667 98.5332 71 104.367 71 112.033C71 121.367 67.8333 128.7 61.5 134.033C55.5 139.033 47.8333 141.533 38.5 141.533Z" fill="#F3C98B"/>
</svg>
