<svg width="63" height="42" viewBox="0 0 63 42" fill="none" xmlns="http://www.w3.org/2000/svg">
<path d="M46.9669 25.1399V24.5519H47.3589C47.6762 24.5519 47.9469 24.4959 48.1709 24.3839C48.3949 24.2626 48.5069 23.9826 48.5069 23.5439V22.3959H44.1949V21.8219L48.5209 15.1439H49.8509V21.6119H51.5869V22.3959H49.8509V23.5439C49.8509 23.9826 49.9629 24.2626 50.1869 24.3839C50.4109 24.4959 50.6816 24.5519 50.9989 24.5519H51.1809V25.1399H46.9669ZM45.2029 21.6119H48.5069V19.0219C48.5069 18.7512 48.5069 18.4479 48.5069 18.1119C48.5162 17.7666 48.5302 17.4212 48.5489 17.0759C48.5676 16.7306 48.5862 16.4132 48.6049 16.1239C48.5582 16.2172 48.4836 16.3572 48.3809 16.5439C48.2782 16.7306 48.1616 16.9359 48.0309 17.1599C47.9002 17.3746 47.7742 17.5846 47.6529 17.7899C47.5316 17.9859 47.4289 18.1492 47.3449 18.2799L45.2029 21.6119ZM55.6972 25.2799C54.9319 25.2799 54.3066 25.0652 53.8212 24.6359C53.3359 24.2066 52.9766 23.6046 52.7432 22.8299C52.5192 22.0552 52.4072 21.1499 52.4072 20.1139C52.4072 19.0779 52.5192 18.1772 52.7432 17.4119C52.9766 16.6466 53.3359 16.0539 53.8212 15.6339C54.3066 15.2139 54.9366 15.0039 55.7112 15.0039C56.4392 15.0039 57.0459 15.2139 57.5312 15.6339C58.0166 16.0539 58.3759 16.6512 58.6092 17.4259C58.8519 18.1912 58.9732 19.0919 58.9732 20.1279C58.9732 21.1639 58.8519 22.0692 58.6092 22.8439C58.3666 23.6092 58.0026 24.2066 57.5172 24.6359C57.0412 25.0652 56.4346 25.2799 55.6972 25.2799ZM55.6972 24.5239C56.3786 24.5239 56.8499 24.1366 57.1112 23.3619C57.3819 22.5872 57.5172 21.5092 57.5172 20.1279C57.5172 18.7372 57.3819 17.6639 57.1112 16.9079C56.8499 16.1426 56.3832 15.7599 55.7112 15.7599C55.0299 15.7599 54.5492 16.1426 54.2692 16.9079C53.9986 17.6639 53.8632 18.7372 53.8632 20.1279C53.8632 21.5092 53.9986 22.5872 54.2692 23.3619C54.5399 24.1366 55.0159 24.5239 55.6972 24.5239Z" fill="#677071"/>
<path d="M25.0847 23.512L29.9696 18.3398L25.0847 13.1676" stroke="#CCCFD0" stroke-width="1.7" stroke-linecap="round" stroke-linejoin="round"/>
<path d="M26.713 30.4083H11.2443C11.0283 30.4083 10.8213 30.3175 10.6686 30.1558C10.5159 29.9941 10.4301 29.7749 10.4301 29.5463V16.6157" stroke="#CCCFD0" stroke-width="1.7" stroke-linecap="round" stroke-linejoin="round"/>
<path d="M14.8086 26.098C15.3508 23.8775 16.5744 21.9106 18.287 20.5063C19.9997 19.102 22.1044 18.3399 24.2705 18.3397H29.9695" stroke="#CCCFD0" stroke-width="1.7" stroke-linecap="round" stroke-linejoin="round"/>
</svg>
