<svg width="39" height="38" viewBox="0 0 39 38" fill="none" xmlns="http://www.w3.org/2000/svg">
<path d="M11.6017 31.2942C11.4754 31.2942 11.3543 31.2667 11.2409 31.2141C10.9574 31.0791 10.7719 30.7939 10.7719 30.4862V7.01577C10.7719 6.57303 11.1455 6.21033 11.6017 6.21033H27.722C28.1807 6.21033 28.5544 6.57303 28.5544 7.01577V30.4862C28.5544 30.7939 28.3689 31.0791 28.0828 31.2116C27.9694 31.2642 27.8483 31.2917 27.722 31.2917C27.5338 31.2917 27.3509 31.2292 27.204 31.1141L19.6631 25.2609L12.1223 31.1166C11.9754 31.2292 11.7898 31.2942 11.6017 31.2942ZM19.6631 23.4223C19.8513 23.4223 20.0342 23.4849 20.1811 23.5999L26.8921 28.8103V7.82122H12.4341V28.8078L19.1451 23.5974C19.292 23.4849 19.475 23.4223 19.6631 23.4223Z" fill="#13A6BA"/>
</svg>
