<svg width="102" height="103" viewBox="0 0 102 103" fill="none" xmlns="http://www.w3.org/2000/svg">
<path d="M51.0035 84.4408C50.717 84.4408 50.4446 84.3843 50.1791 84.2785C33.9909 77.6043 23.5387 61.8923 23.5387 44.2472V31.3644C23.5387 30.4684 24.0697 29.6712 24.8872 29.3255L50.1651 18.7285C50.4306 18.6156 50.7101 18.5592 50.9965 18.5592C51.283 18.5592 51.5694 18.6156 51.8349 18.7285L77.1129 29.3255C77.9303 29.6712 78.4613 30.4684 78.4613 31.3644V44.2472C78.4613 61.8923 68.0092 77.6113 51.8279 84.2785C51.5624 84.3843 51.283 84.4408 51.0035 84.4408ZM27.9054 32.8319V44.2402C27.9054 59.6205 36.9113 73.5687 50.8428 79.7702L51.0035 79.8408L51.1642 79.7702C65.0957 73.5687 74.1016 59.6276 74.1016 44.2402V32.8319L51.0035 23.1521L27.9054 32.8319ZM48.1459 58.915C47.566 58.915 47.0141 58.6822 46.6019 58.2659L39.3986 50.992C38.9864 50.5758 38.7558 50.0184 38.7558 49.4328C38.7558 48.8472 38.9864 48.2899 39.3986 47.8736C39.8108 47.4574 40.3627 47.2245 40.9426 47.2245C41.5225 47.2245 42.0745 47.4574 42.4867 47.8736L48.1529 53.5954L59.5203 42.1166C59.9325 41.7003 60.4845 41.4675 61.0644 41.4675C61.6443 41.4675 62.1962 41.7003 62.6084 42.1166C63.0207 42.5328 63.2512 43.0902 63.2512 43.6758C63.2512 44.2613 63.0207 44.8187 62.6084 45.235L49.69 58.2659C49.2778 58.6822 48.7328 58.915 48.1459 58.915Z" fill="#B3C41D"/>
</svg>
