<svg width="103" height="104" viewBox="0 0 103 104" fill="none" xmlns="http://www.w3.org/2000/svg">
<path d="M50.2355 78.2284C48.8191 77.0869 47.5662 75.7598 46.5039 74.2745C45.9115 73.4494 44.7675 73.2637 43.9503 73.8551C43.1332 74.4533 42.9493 75.6085 43.5349 76.4337C44.7879 78.1871 46.2724 79.7687 47.9475 81.1164C48.2676 81.3777 48.6761 81.5221 49.0847 81.5221C49.6431 81.5221 50.1674 81.2677 50.5147 80.8276C51.1548 80.03 51.0254 78.861 50.2355 78.2284Z" fill="#B3C41D"/>
<path d="M72.4414 45.3184C74.0076 46.233 75.4444 47.3607 76.7109 48.6741C77.0582 49.0316 77.5213 49.2311 78.0184 49.2311C78.5019 49.2311 78.9513 49.0454 79.2918 48.7085C80.0136 48.0002 80.0272 46.8244 79.3258 46.0955C77.8277 44.5414 76.1253 43.2074 74.2731 42.1278C73.4015 41.619 72.2779 41.9216 71.774 42.8017C71.5289 43.2281 71.4608 43.7231 71.5902 44.2045C71.7127 44.6789 72.0124 45.0709 72.4414 45.3184Z" fill="#B3C41D"/>
<path d="M79.9251 53.068C80.7899 54.6771 81.4368 56.3893 81.8385 58.1702C82.0292 59.016 82.7646 59.6074 83.6226 59.6074C83.7588 59.6074 83.895 59.5936 84.0312 59.5593C85.0118 59.3323 85.6315 58.3422 85.4067 57.352C84.9301 55.2409 84.1674 53.2056 83.1392 51.3008C82.9076 50.8676 82.5195 50.5513 82.0496 50.4138C81.5798 50.2763 81.0895 50.3313 80.6605 50.5651C80.2315 50.7989 79.9183 51.1908 79.7821 51.6653C79.6459 52.1397 79.6867 52.6348 79.9251 53.068Z" fill="#B3C41D"/>
<path d="M60.1026 82.4298C58.3048 82.2029 56.548 81.7284 54.8796 81.0201C53.9535 80.6213 52.8776 81.0683 52.4827 82.0035C52.0877 82.9386 52.5304 84.0251 53.4565 84.4239C55.4312 85.2628 57.5149 85.8267 59.6463 86.0949C59.7212 86.1017 59.7961 86.1086 59.871 86.1086C60.7903 86.1086 61.5734 85.4141 61.6824 84.4927C61.7437 84.0045 61.6075 83.5162 61.3078 83.1312C61.0082 82.7461 60.586 82.4917 60.1026 82.4298Z" fill="#B3C41D"/>
<path d="M43.9776 69.4474C43.392 67.8245 43.0175 66.1192 42.8677 64.3864C54.0761 63.4719 63.0443 54.6152 64.2496 43.3793L64.2564 43.3862L64.2768 43.173C64.2904 43.0286 64.3041 42.8842 64.3177 42.7329C65.3732 42.8292 66.4218 43.008 67.4433 43.2693C67.9199 43.3931 68.4102 43.3174 68.8256 43.063C69.2478 42.8086 69.5406 42.4098 69.6632 41.9284C69.7857 41.454 69.7108 40.952 69.4657 40.5325C69.2137 40.1062 68.8188 39.8105 68.3421 39.6868C67.0347 39.3498 65.6932 39.1298 64.3313 39.0335C63.412 26.7249 53.2386 17.1531 40.961 17.1531C28.0433 17.1531 17.5362 27.7633 17.5362 40.8076C17.5362 53.2193 27.0083 63.4787 39.1973 64.3933C39.3539 66.5524 39.8102 68.6772 40.5388 70.7057C40.8044 71.4346 41.4921 71.9228 42.2548 71.9228C42.4659 71.9228 42.677 71.8884 42.8813 71.8128C43.8346 71.4621 44.3181 70.4032 43.9776 69.4474ZM39.2109 60.6938C29.0647 59.793 21.1929 51.1564 21.1929 40.8076C21.1929 29.7986 30.0589 20.8457 40.961 20.8457C51.2093 20.8457 59.7621 28.7947 60.6542 39.0404C49.2278 39.9756 40.137 49.1554 39.2109 60.6938ZM42.8813 60.6801C43.7869 51.2252 51.2774 43.6681 60.6405 42.7467C59.7281 52.2016 52.2444 59.7587 42.8813 60.6801Z" fill="#B3C41D"/>
<path d="M85.4816 62.4611C85.1548 62.0966 84.7053 61.8835 84.2151 61.8559C83.718 61.8284 83.2617 62.0003 82.9008 62.3304C82.5399 62.6605 82.3288 63.1143 82.3016 63.6094C82.2131 65.4385 81.8794 67.247 81.3006 68.9729C80.9805 69.9356 81.4981 70.9877 82.4514 71.3108C82.6421 71.3727 82.8395 71.4071 83.0302 71.4071C83.8133 71.4071 84.5147 70.8983 84.7598 70.1488C85.4408 68.0996 85.8357 65.9611 85.9447 63.7882C85.9787 63.3 85.8153 62.8255 85.4816 62.4611Z" fill="#B3C41D"/>
<path d="M81.4368 73.3737C80.606 72.803 79.4688 73.0162 78.8968 73.8551C77.8754 75.361 76.6565 76.7293 75.2674 77.9052C74.8928 78.2215 74.6613 78.6685 74.6205 79.1567C74.5796 79.6449 74.7294 80.1262 75.0426 80.5044C75.3899 80.9239 75.9007 81.1646 76.4454 81.1646C76.8744 81.1646 77.2898 81.0133 77.6235 80.7314C79.2646 79.3355 80.7082 77.7264 81.9203 75.9386C82.4855 75.0997 82.2744 73.9513 81.4368 73.3737Z" fill="#B3C41D"/>
<path d="M70.6913 80.8207C69.0434 81.5703 67.3002 82.0929 65.5092 82.361C65.0258 82.4367 64.6036 82.6911 64.3108 83.0899C64.018 83.4887 63.9022 83.9701 63.9703 84.4583C64.1065 85.3522 64.8828 86.033 65.7748 86.033C65.8633 86.033 65.9519 86.0261 66.0472 86.0123C68.1718 85.6892 70.2419 85.0772 72.1962 84.1833C72.6388 83.977 72.9793 83.6125 73.1564 83.1518C73.3266 82.6911 73.313 82.1891 73.1087 81.7422C72.7001 80.8139 71.6174 80.4013 70.6913 80.8207Z" fill="#B3C41D"/>
<path d="M31.4208 26.5805C30.9373 26.5255 30.4606 26.6631 30.0793 26.9725C25.871 30.3419 23.4604 35.3891 23.4604 40.8076C23.4604 41.8253 24.2776 42.6504 25.2854 42.6504C26.2932 42.6504 27.1103 41.8253 27.1103 40.8076C27.1103 36.5237 29.017 32.5285 32.3469 29.8605C32.7282 29.5511 32.9734 29.1179 33.0278 28.6228C33.0823 28.1346 32.9461 27.6532 32.6397 27.2613C32.3333 26.8693 31.9111 26.6356 31.4208 26.5805Z" fill="#B3C41D"/>
<path d="M40.9609 23.1355C39.313 23.1355 37.6787 23.3693 36.1057 23.8232C35.1388 24.1051 34.5736 25.1297 34.8528 26.1061C35.0775 26.89 35.7993 27.4401 36.6096 27.4401C36.7799 27.4401 36.9501 27.4126 37.1204 27.3644C38.3597 27 39.6535 26.8212 40.9609 26.8212C41.9687 26.8212 42.7859 25.9961 42.7859 24.9784C42.7859 23.9607 41.9687 23.1355 40.9609 23.1355Z" fill="#B3C41D"/>
</svg>
