<svg width="41" height="41" viewBox="0 0 41 41" fill="none" xmlns="http://www.w3.org/2000/svg">
<path d="M29.2618 15.6437L29.273 16.2471C29.273 22.4432 24.7242 29.6024 16.4089 29.6024C13.8607 29.6024 11.4801 28.825 9.47949 27.479C9.82596 27.5255 10.1836 27.5487 10.5524 27.5487C12.676 27.5487 14.6207 26.7945 16.163 25.5297C14.1848 25.4949 12.5195 24.1373 11.9383 22.2692C12.2177 22.3272 12.4971 22.3504 12.7877 22.3504C13.2013 22.3504 13.6036 22.2924 13.9724 22.188C11.9048 21.7586 10.3513 19.8673 10.3513 17.5931V17.5467C10.9548 17.8948 11.6477 18.1036 12.3965 18.1268C11.1895 17.2914 10.396 15.841 10.396 14.2281C10.396 13.3695 10.6195 12.5573 11.0107 11.8611C13.2236 14.7039 16.5654 16.5604 20.3207 16.7577C20.2424 16.4212 20.2089 16.0615 20.2089 15.6902C20.2089 13.1026 22.2207 11.0024 24.7242 11.0024C26.0207 11.0024 27.2054 11.571 28.0324 12.4761C29.0495 12.2672 30.0218 11.8843 30.9048 11.3505C30.5695 12.4412 29.8542 13.3695 28.9154 13.9497C29.8318 13.8336 30.7036 13.5784 31.5195 13.2071C30.9048 14.1469 30.1336 14.9824 29.2618 15.6437Z" fill="#C8F3F9"/>
<rect x="0.499512" y="1.10254" width="40" height="39" stroke="#C8F3F9"/>
</svg>
